<svg width="53" height="47" viewBox="0 0 53 47" fill="none" xmlns="http://www.w3.org/2000/svg">
<path d="M39.2625 46.0595C41.0526 44.9056 41.6798 42.5295 40.6973 40.6399C40.0607 39.4157 38.9099 38.6462 37.6552 38.4449L36.0933 35.6572C35.6739 34.9086 35.8044 33.9796 36.3976 33.3597C37.789 31.9059 38.8623 30.1438 39.5017 28.1839C39.767 27.3706 40.5246 26.8205 41.38 26.8363L44.5668 26.8951C45.3372 27.9057 46.5591 28.5564 47.939 28.5388C50.0685 28.5117 51.8662 26.8361 52.0371 24.7131C52.232 22.2939 50.3492 20.2472 47.9594 20.2031C46.6344 20.1786 45.4433 20.7759 44.662 21.7257L41.475 21.6668C40.6232 21.6511 39.8841 21.0791 39.6507 20.2598C39.0414 18.1216 37.9203 16.1936 36.4256 14.6213C35.837 14.0021 35.716 13.0745 36.1362 12.3307L37.7071 9.55058C38.9625 9.35369 40.1159 8.58866 40.7569 7.36698C41.7464 5.48113 41.128 3.1025 39.3422 1.94193C37.3069 0.619177 34.6107 1.30151 33.4349 3.38255C32.7831 4.53625 32.7416 5.86822 33.2053 7.00714L31.6385 9.78045C31.2198 10.5213 30.3668 10.9011 29.5361 10.7162C28.6651 10.5225 27.7626 10.4123 26.8367 10.3952C20.6445 10.2809 15.3333 14.3507 13.6005 19.9966C13.3505 20.811 12.6 21.3675 11.7481 21.3659L8.55932 21.3601C7.77216 20.3626 6.53967 19.7323 5.1604 19.7729C3.03154 19.8356 1.26198 21.5408 1.12648 23.6662C0.97194 26.0883 2.88856 28.1034 5.27868 28.1079C6.60391 28.1103 7.78496 27.4932 8.55015 26.5306L11.7364 26.5363C12.5901 26.5379 13.3373 27.1001 13.5853 27.9169C15.2509 33.4012 20.3032 37.4491 26.3355 37.5604C27.4122 37.5803 28.4617 37.4723 29.4707 37.2522C30.3084 37.0695 31.1679 37.4445 31.587 38.1926L33.1445 40.9725C32.6767 42.1097 32.7132 43.4417 33.3609 44.5978C34.5292 46.6826 37.2226 47.3746 39.2625 46.0595V46.0595Z" fill="#8C82FF"/>
</svg>
